<svg width="40" height="41" viewBox="0 0 40 41" fill="none" xmlns="http://www.w3.org/2000/svg">
<g id="&#240;&#159;&#166;&#134; icon &#34;smart home&#34;">
<g id="Group">
<path id="Vector" d="M30.5308 39.7251H19.1275C18.3734 39.7251 17.7481 39.0947 17.7481 38.3346C17.7481 37.5745 18.3734 36.9441 19.1275 36.9441H30.5308C32.4988 36.9441 34.43 35.2939 34.761 33.3287L37.2072 18.5712C37.4279 17.2363 36.6924 15.3265 35.6624 14.4922L22.9164 4.22128C21.445 3.03474 18.9988 3.03472 17.5458 4.20273L4.79992 14.4922C3.75155 15.345 3.03425 17.2363 3.25496 18.5712L3.76995 21.7042C3.89869 22.4643 3.38373 23.1874 2.62964 23.2986C1.87555 23.4469 1.17666 22.9093 1.04792 22.1492L0.53293 19.0347C0.14669 16.7357 1.25025 13.7878 3.07109 12.3232L15.817 2.03349C18.2815 0.0311937 22.1623 0.049752 24.6452 2.05205L37.3911 12.3232C39.1936 13.7878 40.2971 16.7357 39.9293 19.0347L37.4831 33.7922C36.9313 37.0737 33.823 39.7251 30.5308 39.7251Z" fill="#02836F"/>
<path id="Vector_2" d="M7.3575 40.0773C6.60341 40.0773 5.99647 39.4655 5.97807 38.7239C5.9229 36.221 4.286 34.571 1.80303 34.5153C1.04894 34.4968 0.441976 33.8665 0.460368 33.0878C0.478761 32.3276 1.08571 31.7344 1.83979 31.7344H1.87656C5.83092 31.8271 8.66336 34.6637 8.73693 38.6497C8.75532 39.4099 8.14835 40.0588 7.39427 40.0773C7.37587 40.0773 7.37589 40.0773 7.3575 40.0773Z" fill="#02836F"/>
<path id="Vector_3" d="M12.8752 40.0767C12.1211 40.0767 11.4958 39.4649 11.4958 38.7048C11.4774 37.4812 11.275 36.3132 10.9072 35.2193C9.96919 32.5125 7.96442 30.51 5.27914 29.5459C4.19399 29.1566 3.03527 28.9528 1.82137 28.9528C1.06729 28.9528 0.441964 28.3225 0.460357 27.5438C0.460357 26.7837 1.0857 26.1719 1.83978 26.1719H1.85818C3.38474 26.1904 4.83772 26.45 6.19875 26.932C9.67491 28.1742 12.2682 30.7883 13.5005 34.2923C13.9787 35.6643 14.2362 37.1474 14.2546 38.6677C14.2546 39.4464 13.6477 40.0767 12.8752 40.0767Z" fill="#02836F"/>
<path id="Vector_4" d="M1.83924 40.5419C0.809264 40.5419 0 39.7077 0 38.688C0 37.6683 0.827656 36.834 1.83924 36.834C2.85082 36.834 3.67847 37.6683 3.67847 38.688C3.67847 39.7077 2.86921 40.5419 1.83924 40.5419Z" fill="#02836F"/>
</g>
</g>
</svg>
