<svg width="44" height="44" viewBox="0 0 44 44" fill="none" xmlns="http://www.w3.org/2000/svg">
<g id="&#240;&#159;&#166;&#134; icon &#34;user octagon&#34;">
<g id="Group">
<path id="Vector" d="M42 15.2362V28.9162C42 31.1562 40.6791 33.2362 38.5437 34.3762L25.4672 41.2362C23.3318 42.3562 20.6901 42.3562 18.5327 41.2362L5.45625 34.3762C3.32086 33.2562 2 31.1762 2 28.9162V15.2362C2 12.9962 3.32086 10.9162 5.45625 9.77615L18.5327 2.91617C20.6681 1.79617 23.3098 1.79617 25.4672 2.91617L38.5437 9.77615C40.6791 10.9162 42 12.9762 42 15.2362Z" stroke="#02836F" stroke-width="3" stroke-linecap="round" stroke-linejoin="round"/>
<path id="Vector_2" d="M22.0111 20.0759C24.8441 20.0759 27.1404 17.9894 27.1404 15.4158C27.1404 12.8421 24.8441 10.7559 22.0111 10.7559C19.1783 10.7559 16.8818 12.8421 16.8818 15.4158C16.8818 17.9894 19.1783 20.0759 22.0111 20.0759Z" stroke="#02836F" stroke-width="3" stroke-linecap="round" stroke-linejoin="round"/>
<path id="Vector_3" d="M30.8166 31.397C30.8166 27.797 26.876 24.877 22.0108 24.877C17.1456 24.877 13.2051 27.797 13.2051 31.397" stroke="#02836F" stroke-width="3" stroke-linecap="round" stroke-linejoin="round"/>
</g>
</g>
</svg>
